<svg width="100" height="100" viewBox="0 0 100 100" fill="none" xmlns="http://www.w3.org/2000/svg">    <defs>        <linearGradient id="gradIcon" x1="0%" y1="0%" x2="100%" y2="100%">            <stop offset="0%" style="stop-color:#4facfe;stop-opacity:1" />            <stop offset="100%" style="stop-color:#00f2fe;stop-opacity:1" />        </linearGradient>    </defs>    <circle cx="50" cy="50" r="45" fill="url(#gradIcon)"/>    <g transform="scale(0.195) translate(0, 0)">        <path fill="white" d="M172.79,268.82 C141.41,308.25 162.22,365.47 211.25,374.44 C232.31,378.30 251.63,372.74 267.00,357.69 C298.31,327.02 329.05,295.76 360.00,264.73 C365.20,259.51 372.32,259.71 377.03,265.32 C385.84,275.80 385.59,281.98 375.93,291.65 C346.35,321.23 317.24,351.30 287.05,380.24 C259.99,406.18 227.27,413.08 191.69,402.24 C156.12,391.41 135.06,366.22 128.13,330.10 C121.71,296.70 131.22,267.53 155.40,243.36 C193.47,205.30 231.20,166.88 269.74,129.31 C289.24,110.29 313.43,104.69 339.58,112.30 C365.10,119.73 380.79,137.54 386.42,163.36 C391.42,186.26 385.51,206.94 369.08,223.66 C335.20,258.13 300.88,292.16 266.60,326.24 C253.87,338.91 233.61,342.09 216.94,334.55 C201.77,327.69 192.33,312.47 193.07,295.68 C193.54,285.28 197.50,276.18 204.81,268.82 C231.34,242.09 257.97,215.44 284.67,188.88 C291.53,182.06 299.87,182.32 306.29,189.02 C312.68,195.67 312.58,203.59 305.39,210.65 C282.44,233.18 259.33,255.55 236.28,277.99 C233.65,280.55 230.95,283.03 228.40,285.67 C223.25,291.03 222.51,298.95 226.66,303.30 C231.56,308.43 239.82,308.27 245.40,302.71 C279.72,268.44 314.11,234.24 348.25,199.79 C363.90,184.00 363.83,161.18 348.68,146.09 C333.63,131.10 310.76,130.90 295.35,146.21 C254.46,186.87 213.79,227.76 172.79,268.82 z"/>    </g></svg>