<svg width="100" height="100" viewBox="0 0 100 100" xmlns="http://www.w3.org/2000/svg">    <defs>        <linearGradient id="gradIconStyle" x1="0%" y1="0%" x2="100%" y2="100%">            <stop offset="0%" style="stop-color:#4facfe;stop-opacity:1" />            <stop offset="100%" style="stop-color:#00f2fe;stop-opacity:1" />        </linearGradient>    </defs>    <circle cx="50" cy="50" r="48" fill="url(#gradIconStyle)"/>    <g transform="translate(50, 50) scale(0.14) translate(-256, -256)">        <path fill="white" d="M265.241760,425.241760             C256.142792,434.006378 247.411865,442.648468 238.401947,450.989197             C232.718903,456.250092 221.903122,455.532898 216.401093,450.008667             C166.072479,399.476227 115.680855,349.005585 65.075333,298.750824             C57.452209,291.180542 57.779728,279.800201 64.723740,272.777313             C65.192154,272.303558 65.667831,271.837006 66.138931,271.365906             C134.478806,203.023666 202.841431,134.704056 271.084381,66.265152             C274.181305,63.159321 277.442505,62.027542 281.524261,61.986244             C312.112671,61.676746 342.701294,61.380787 373.288605,60.981781             C391.212585,60.747974 409.133972,60.322124 427.056976,60.007618             C431.066498,59.937256 435.165436,59.429214 439.071808,60.060085             C450.306152,61.874382 454.910492,66.837502 454.908203,77.929115             C454.904327,96.855278 454.386810,115.782547 453.969482,134.706802             C453.809326,141.969589 453.147766,149.222473 453.033112,156.484879             C452.615875,182.909073 452.396088,209.336670 451.871033,235.758377             C451.832397,237.701721 450.349884,240.000214 448.878754,241.475662             C400.405670,290.091400 351.851868,338.626740 303.309662,387.173615             C290.704254,399.780212 278.097748,412.385742 265.241760,425.241760 Z"/>        <path fill="url(#gradIconStyle)" d="M378.182617,117.650368             C400.545837,127.054070 406.340088,155.667252 388.557587,172.708313             C378.647980,182.204758 366.471100,184.746704 354.299225,180.014114             C340.212769,174.537140 332.437225,164.174927 332.050232,148.936523             C331.527863,128.369751 349.586456,112.983955 370.015686,115.075111             C372.690918,115.348961 375.267090,116.590134 378.182617,117.650368 Z"/>    </g></svg>